<mxfile host="Electron" modified="2023-09-03T13:48:07.547Z" agent="Mozilla/5.0 (Windows NT 10.0; Win64; x64) AppleWebKit/537.36 (KHTML, like Gecko) draw.io/21.6.5 Chrome/114.0.5735.243 Electron/25.3.1 Safari/537.36" etag="MBzWbWtgZ3t-Pe96bqQL" version="21.6.5" type="device">
  <diagram name="Страница 1" id="qG_eLRqGG2zT4GhpvxOg">
    <mxGraphModel dx="1156" dy="863" grid="1" gridSize="10" guides="1" tooltips="1" connect="1" arrows="1" fold="1" page="1" pageScale="1" pageWidth="827" pageHeight="1169" math="0" shadow="0">
      <root>
        <mxCell id="0" />
        <mxCell id="1" parent="0" />
        <mxCell id="qdiF5EuSsOP5StvctFkJ-1" value="" style="rounded=0;whiteSpace=wrap;html=1;fillColor=none;dashed=1;strokeColor=#CC00CC;" vertex="1" parent="1">
          <mxGeometry x="360" y="642" width="430" height="130" as="geometry" />
        </mxCell>
        <mxCell id="qdiF5EuSsOP5StvctFkJ-2" value="&lt;h1&gt;Discrete output&lt;/h1&gt;&lt;p&gt;General algorithm for processing the control signal for a discrete output.&lt;/p&gt;" style="text;html=1;strokeColor=none;fillColor=none;spacing=5;spacingTop=-20;whiteSpace=wrap;overflow=hidden;rounded=0;shadow=0;glass=0;sketch=0;" vertex="1" parent="1">
          <mxGeometry x="61" y="210" width="310" height="130" as="geometry" />
        </mxCell>
        <mxCell id="qdiF5EuSsOP5StvctFkJ-3" style="edgeStyle=orthogonalEdgeStyle;rounded=0;orthogonalLoop=1;jettySize=auto;html=1;entryX=0.5;entryY=0;entryDx=0;entryDy=0;" edge="1" parent="1" source="qdiF5EuSsOP5StvctFkJ-6" target="qdiF5EuSsOP5StvctFkJ-13">
          <mxGeometry relative="1" as="geometry" />
        </mxCell>
        <mxCell id="qdiF5EuSsOP5StvctFkJ-4" style="edgeStyle=orthogonalEdgeStyle;rounded=0;orthogonalLoop=1;jettySize=auto;html=1;entryX=1;entryY=0;entryDx=0;entryDy=0;exitX=0.75;exitY=1;exitDx=0;exitDy=0;dashed=1;dashPattern=1 1;strokeColor=#FF0000;startArrow=diamond;startFill=0;" edge="1" parent="1" source="qdiF5EuSsOP5StvctFkJ-6" target="qdiF5EuSsOP5StvctFkJ-13">
          <mxGeometry relative="1" as="geometry" />
        </mxCell>
        <mxCell id="qdiF5EuSsOP5StvctFkJ-5" style="edgeStyle=orthogonalEdgeStyle;rounded=0;orthogonalLoop=1;jettySize=auto;html=1;exitX=0.25;exitY=1;exitDx=0;exitDy=0;entryX=0;entryY=0;entryDx=0;entryDy=0;dashed=1;dashPattern=1 1;strokeColor=#00FF00;startArrow=diamond;startFill=0;" edge="1" parent="1" source="qdiF5EuSsOP5StvctFkJ-6" target="qdiF5EuSsOP5StvctFkJ-13">
          <mxGeometry relative="1" as="geometry" />
        </mxCell>
        <mxCell id="qdiF5EuSsOP5StvctFkJ-6" value="Signal from the algorithm" style="rounded=1;whiteSpace=wrap;html=1;fillColor=default;strokeColor=default;shadow=0;glass=0;labelBackgroundColor=none;labelBorderColor=none;sketch=0;" vertex="1" parent="1">
          <mxGeometry x="540" y="220" width="120" height="60" as="geometry" />
        </mxCell>
        <mxCell id="qdiF5EuSsOP5StvctFkJ-7" value="Phisical output" style="rounded=1;whiteSpace=wrap;html=1;fillColor=#e1d5e7;strokeColor=#9673a6;" vertex="1" parent="1">
          <mxGeometry x="532" y="812" width="120" height="60" as="geometry" />
        </mxCell>
        <mxCell id="qdiF5EuSsOP5StvctFkJ-8" style="edgeStyle=orthogonalEdgeStyle;rounded=0;orthogonalLoop=1;jettySize=auto;html=1;entryX=0.5;entryY=0;entryDx=0;entryDy=0;" edge="1" parent="1" source="qdiF5EuSsOP5StvctFkJ-10">
          <mxGeometry relative="1" as="geometry">
            <mxPoint x="600" y="640" as="targetPoint" />
          </mxGeometry>
        </mxCell>
        <mxCell id="qdiF5EuSsOP5StvctFkJ-9" style="edgeStyle=orthogonalEdgeStyle;rounded=0;orthogonalLoop=1;jettySize=auto;html=1;exitX=0;exitY=1;exitDx=0;exitDy=0;strokeColor=#CC00CC;dashed=1;dashPattern=1 1;startArrow=diamond;startFill=0;" edge="1" parent="1" source="qdiF5EuSsOP5StvctFkJ-10">
          <mxGeometry relative="1" as="geometry">
            <mxPoint x="580" y="640" as="targetPoint" />
          </mxGeometry>
        </mxCell>
        <mxCell id="qdiF5EuSsOP5StvctFkJ-10" value="CMD&lt;br&gt;START" style="rhombus;whiteSpace=wrap;html=1;rounded=1;shadow=0;glass=0;sketch=0;fillColor=#eeeeee;strokeColor=#36393d;labelBackgroundColor=none;labelBorderColor=none;" vertex="1" parent="1">
          <mxGeometry x="560" y="510" width="80" height="80" as="geometry" />
        </mxCell>
        <mxCell id="qdiF5EuSsOP5StvctFkJ-11" style="edgeStyle=orthogonalEdgeStyle;rounded=0;orthogonalLoop=1;jettySize=auto;html=1;entryX=0.5;entryY=0;entryDx=0;entryDy=0;" edge="1" parent="1" source="qdiF5EuSsOP5StvctFkJ-13" target="qdiF5EuSsOP5StvctFkJ-23">
          <mxGeometry relative="1" as="geometry">
            <mxPoint x="760" y="390" as="targetPoint" />
          </mxGeometry>
        </mxCell>
        <mxCell id="qdiF5EuSsOP5StvctFkJ-12" style="edgeStyle=orthogonalEdgeStyle;rounded=0;orthogonalLoop=1;jettySize=auto;html=1;exitX=0;exitY=1;exitDx=0;exitDy=0;dashed=1;dashPattern=1 1;strokeColor=#CC00CC;startArrow=diamond;startFill=0;entryX=0.25;entryY=0;entryDx=0;entryDy=0;" edge="1" parent="1" source="qdiF5EuSsOP5StvctFkJ-13" target="qdiF5EuSsOP5StvctFkJ-23">
          <mxGeometry relative="1" as="geometry">
            <mxPoint x="490" y="380" as="targetPoint" />
          </mxGeometry>
        </mxCell>
        <mxCell id="qdiF5EuSsOP5StvctFkJ-13" value="AUTO&lt;br&gt;START" style="rhombus;whiteSpace=wrap;html=1;rounded=1;shadow=0;glass=0;sketch=0;fillColor=#eeeeee;strokeColor=#36393d;" vertex="1" parent="1">
          <mxGeometry x="560" y="310" width="80" height="80" as="geometry" />
        </mxCell>
        <mxCell id="qdiF5EuSsOP5StvctFkJ-14" style="edgeStyle=orthogonalEdgeStyle;rounded=0;orthogonalLoop=1;jettySize=auto;html=1;entryX=1;entryY=0.5;entryDx=0;entryDy=0;" edge="1" parent="1" source="qdiF5EuSsOP5StvctFkJ-15" target="qdiF5EuSsOP5StvctFkJ-7">
          <mxGeometry relative="1" as="geometry" />
        </mxCell>
        <mxCell id="qdiF5EuSsOP5StvctFkJ-15" value="Inverse" style="shape=process;whiteSpace=wrap;html=1;backgroundOutline=1;fillColor=#eeeeee;strokeColor=#36393d;" vertex="1" parent="1">
          <mxGeometry x="652" y="732" width="120" height="20" as="geometry" />
        </mxCell>
        <mxCell id="qdiF5EuSsOP5StvctFkJ-16" value="NC" style="edgeStyle=orthogonalEdgeStyle;rounded=0;orthogonalLoop=1;jettySize=auto;html=1;entryX=0.5;entryY=0;entryDx=0;entryDy=0;" edge="1" parent="1" source="qdiF5EuSsOP5StvctFkJ-18" target="qdiF5EuSsOP5StvctFkJ-15">
          <mxGeometry relative="1" as="geometry">
            <mxPoint x="692" y="682" as="targetPoint" />
          </mxGeometry>
        </mxCell>
        <mxCell id="qdiF5EuSsOP5StvctFkJ-17" value="NO" style="edgeStyle=orthogonalEdgeStyle;rounded=0;orthogonalLoop=1;jettySize=auto;html=1;entryX=0.5;entryY=0;entryDx=0;entryDy=0;" edge="1" parent="1" source="qdiF5EuSsOP5StvctFkJ-18" target="qdiF5EuSsOP5StvctFkJ-7">
          <mxGeometry x="-0.4167" relative="1" as="geometry">
            <mxPoint x="591.76" y="792.28" as="targetPoint" />
            <mxPoint as="offset" />
          </mxGeometry>
        </mxCell>
        <mxCell id="qdiF5EuSsOP5StvctFkJ-18" value="Signal&lt;br&gt;type" style="rhombus;whiteSpace=wrap;html=1;fillColor=#dae8fc;strokeColor=#00A800;rounded=1;shadow=0;glass=0;labelBackgroundColor=none;labelBorderColor=none;sketch=0;strokeWidth=2;" vertex="1" parent="1">
          <mxGeometry x="552" y="661" width="80" height="80" as="geometry" />
        </mxCell>
        <mxCell id="qdiF5EuSsOP5StvctFkJ-19" value="&lt;div style=&quot;border-color: var(--border-color);&quot;&gt;Signal type selection:&lt;/div&gt;&lt;div style=&quot;border-color: var(--border-color);&quot;&gt;- normally open contact (NO)&lt;/div&gt;&lt;div style=&quot;border-color: var(--border-color);&quot;&gt;- normally closed contact (NC)&lt;/div&gt;" style="text;html=1;strokeColor=none;fillColor=none;align=left;verticalAlign=middle;whiteSpace=wrap;rounded=0;dashed=1;" vertex="1" parent="1">
          <mxGeometry x="364.5" y="712" width="210" height="60" as="geometry" />
        </mxCell>
        <mxCell id="qdiF5EuSsOP5StvctFkJ-20" style="edgeStyle=orthogonalEdgeStyle;rounded=0;orthogonalLoop=1;jettySize=auto;html=1;exitX=0.938;exitY=0.999;exitDx=0;exitDy=0;dashed=1;dashPattern=1 1;startArrow=diamond;startFill=0;strokeColor=#CC00CC;entryX=0.25;entryY=0;entryDx=0;entryDy=0;exitPerimeter=0;" edge="1" parent="1" source="qdiF5EuSsOP5StvctFkJ-19" target="qdiF5EuSsOP5StvctFkJ-7">
          <mxGeometry relative="1" as="geometry">
            <mxPoint x="572" y="772" as="sourcePoint" />
            <mxPoint x="572" y="791" as="targetPoint" />
          </mxGeometry>
        </mxCell>
        <mxCell id="qdiF5EuSsOP5StvctFkJ-21" style="edgeStyle=orthogonalEdgeStyle;rounded=0;orthogonalLoop=1;jettySize=auto;html=1;" edge="1" parent="1" source="qdiF5EuSsOP5StvctFkJ-23" target="qdiF5EuSsOP5StvctFkJ-10">
          <mxGeometry relative="1" as="geometry" />
        </mxCell>
        <mxCell id="qdiF5EuSsOP5StvctFkJ-22" style="edgeStyle=orthogonalEdgeStyle;rounded=0;orthogonalLoop=1;jettySize=auto;html=1;entryX=0;entryY=0;entryDx=0;entryDy=0;exitX=0.25;exitY=1;exitDx=0;exitDy=0;strokeColor=#CC00CC;dashed=1;dashPattern=1 1;startArrow=diamond;startFill=0;" edge="1" parent="1" source="qdiF5EuSsOP5StvctFkJ-23" target="qdiF5EuSsOP5StvctFkJ-10">
          <mxGeometry relative="1" as="geometry" />
        </mxCell>
        <mxCell id="qdiF5EuSsOP5StvctFkJ-23" value="&lt;div&gt;FC: drv_CMD&lt;/div&gt;" style="shape=process;whiteSpace=wrap;html=1;backgroundOutline=1;fillColor=#eeeeee;strokeColor=#36393d;" vertex="1" parent="1">
          <mxGeometry x="518.5" y="420" width="163" height="60" as="geometry" />
        </mxCell>
        <mxCell id="qdiF5EuSsOP5StvctFkJ-24" value="O" style="text;html=1;strokeColor=default;fillColor=default;align=center;verticalAlign=middle;whiteSpace=wrap;rounded=1;arcSize=0;" vertex="1" parent="1">
          <mxGeometry x="673.5" y="410" width="20" height="20" as="geometry" />
        </mxCell>
        <mxCell id="qdiF5EuSsOP5StvctFkJ-25" value="&lt;b&gt;Signals&lt;br&gt;&lt;/b&gt;" style="text;html=1;strokeColor=none;fillColor=none;align=left;verticalAlign=middle;whiteSpace=wrap;rounded=0;shadow=0;glass=0;labelBackgroundColor=#FFFFFF;labelBorderColor=none;sketch=0;" vertex="1" parent="1">
          <mxGeometry x="540" y="10" width="235" height="15" as="geometry" />
        </mxCell>
        <mxCell id="qdiF5EuSsOP5StvctFkJ-26" style="edgeStyle=orthogonalEdgeStyle;rounded=0;orthogonalLoop=1;jettySize=auto;html=1;dashed=1;dashPattern=1 1;strokeColor=#CC00CC;startArrow=diamond;startFill=0;" edge="1" parent="1">
          <mxGeometry relative="1" as="geometry">
            <mxPoint x="546" y="41" as="sourcePoint" />
            <mxPoint x="546" y="61" as="targetPoint" />
          </mxGeometry>
        </mxCell>
        <mxCell id="qdiF5EuSsOP5StvctFkJ-27" style="edgeStyle=orthogonalEdgeStyle;rounded=0;orthogonalLoop=1;jettySize=auto;html=1;dashed=1;dashPattern=1 1;strokeColor=#00FF00;startArrow=diamond;startFill=0;" edge="1" parent="1">
          <mxGeometry relative="1" as="geometry">
            <mxPoint x="546" y="70" as="sourcePoint" />
            <mxPoint x="546" y="90" as="targetPoint" />
          </mxGeometry>
        </mxCell>
        <mxCell id="qdiF5EuSsOP5StvctFkJ-28" value="BOOL = unknown" style="text;html=1;strokeColor=none;fillColor=none;align=left;verticalAlign=middle;whiteSpace=wrap;rounded=0;shadow=0;glass=0;labelBackgroundColor=#FFFFFF;labelBorderColor=none;sketch=0;" vertex="1" parent="1">
          <mxGeometry x="559" y="41" width="150" height="15" as="geometry" />
        </mxCell>
        <mxCell id="qdiF5EuSsOP5StvctFkJ-29" value="BOOL = TRUE" style="text;html=1;strokeColor=none;fillColor=none;align=left;verticalAlign=middle;whiteSpace=wrap;rounded=0;shadow=0;glass=0;labelBackgroundColor=#FFFFFF;labelBorderColor=none;sketch=0;" vertex="1" parent="1">
          <mxGeometry x="559" y="73" width="150" height="15" as="geometry" />
        </mxCell>
        <mxCell id="qdiF5EuSsOP5StvctFkJ-30" value="BOOL = FALSE" style="text;html=1;strokeColor=none;fillColor=none;align=left;verticalAlign=middle;whiteSpace=wrap;rounded=0;shadow=0;glass=0;labelBackgroundColor=#FFFFFF;labelBorderColor=none;sketch=0;" vertex="1" parent="1">
          <mxGeometry x="559" y="105.5" width="150" height="15" as="geometry" />
        </mxCell>
        <mxCell id="qdiF5EuSsOP5StvctFkJ-31" value="Value" style="text;html=1;strokeColor=none;fillColor=none;align=left;verticalAlign=middle;whiteSpace=wrap;rounded=0;shadow=0;glass=0;labelBackgroundColor=#FFFFFF;labelBorderColor=none;sketch=0;" vertex="1" parent="1">
          <mxGeometry x="559" y="137.5" width="150" height="15" as="geometry" />
        </mxCell>
        <mxCell id="qdiF5EuSsOP5StvctFkJ-32" style="edgeStyle=orthogonalEdgeStyle;rounded=0;orthogonalLoop=1;jettySize=auto;html=1;dashed=1;dashPattern=1 1;strokeColor=#FF0000;startArrow=diamond;startFill=0;" edge="1" parent="1">
          <mxGeometry relative="1" as="geometry">
            <mxPoint x="546" y="101" as="sourcePoint" />
            <mxPoint x="546" y="121" as="targetPoint" />
          </mxGeometry>
        </mxCell>
        <mxCell id="qdiF5EuSsOP5StvctFkJ-33" style="edgeStyle=orthogonalEdgeStyle;rounded=0;orthogonalLoop=1;jettySize=auto;html=1;dashed=1;dashPattern=1 1;strokeColor=#0000FF;startArrow=diamond;startFill=0;" edge="1" parent="1">
          <mxGeometry relative="1" as="geometry">
            <mxPoint x="546" y="130" as="sourcePoint" />
            <mxPoint x="546" y="149.99999999999994" as="targetPoint" />
          </mxGeometry>
        </mxCell>
        <mxCell id="qdiF5EuSsOP5StvctFkJ-34" value="A" style="text;html=1;strokeColor=default;fillColor=default;align=center;verticalAlign=middle;whiteSpace=wrap;rounded=1;" vertex="1" parent="1">
          <mxGeometry x="280" y="38" width="20" height="20" as="geometry" />
        </mxCell>
        <mxCell id="qdiF5EuSsOP5StvctFkJ-35" value="O" style="text;html=1;strokeColor=default;fillColor=default;align=center;verticalAlign=middle;whiteSpace=wrap;rounded=1;" vertex="1" parent="1">
          <mxGeometry x="280" y="70" width="20" height="20" as="geometry" />
        </mxCell>
        <mxCell id="qdiF5EuSsOP5StvctFkJ-36" value="Administrator" style="text;html=1;strokeColor=none;fillColor=none;align=left;verticalAlign=middle;whiteSpace=wrap;rounded=0;shadow=0;glass=0;labelBackgroundColor=#FFFFFF;labelBorderColor=none;sketch=0;" vertex="1" parent="1">
          <mxGeometry x="305" y="41" width="150" height="15" as="geometry" />
        </mxCell>
        <mxCell id="qdiF5EuSsOP5StvctFkJ-37" value="Operator" style="text;html=1;strokeColor=none;fillColor=none;align=left;verticalAlign=middle;whiteSpace=wrap;rounded=0;shadow=0;glass=0;labelBackgroundColor=#FFFFFF;labelBorderColor=none;sketch=0;" vertex="1" parent="1">
          <mxGeometry x="305" y="73" width="150" height="15" as="geometry" />
        </mxCell>
        <mxCell id="qdiF5EuSsOP5StvctFkJ-38" value="U" style="text;html=1;strokeColor=default;fillColor=default;align=center;verticalAlign=middle;whiteSpace=wrap;rounded=1;" vertex="1" parent="1">
          <mxGeometry x="280" y="102" width="20" height="20" as="geometry" />
        </mxCell>
        <mxCell id="qdiF5EuSsOP5StvctFkJ-39" value="User" style="text;html=1;strokeColor=none;fillColor=none;align=left;verticalAlign=middle;whiteSpace=wrap;rounded=0;shadow=0;glass=0;labelBackgroundColor=#FFFFFF;labelBorderColor=none;sketch=0;" vertex="1" parent="1">
          <mxGeometry x="305" y="105.5" width="150" height="15" as="geometry" />
        </mxCell>
        <mxCell id="qdiF5EuSsOP5StvctFkJ-40" value="&lt;b&gt;Restricting Access Levels on the HMI&lt;/b&gt;" style="text;html=1;strokeColor=none;fillColor=none;align=left;verticalAlign=middle;whiteSpace=wrap;rounded=0;shadow=0;glass=0;labelBackgroundColor=#FFFFFF;labelBorderColor=none;sketch=0;" vertex="1" parent="1">
          <mxGeometry x="275" y="10" width="235" height="15" as="geometry" />
        </mxCell>
        <mxCell id="qdiF5EuSsOP5StvctFkJ-41" value="-" style="text;html=1;strokeColor=default;fillColor=default;align=center;verticalAlign=middle;whiteSpace=wrap;rounded=1;" vertex="1" parent="1">
          <mxGeometry x="280" y="134" width="20" height="20" as="geometry" />
        </mxCell>
        <mxCell id="qdiF5EuSsOP5StvctFkJ-42" value="No limits" style="text;html=1;strokeColor=none;fillColor=none;align=left;verticalAlign=middle;whiteSpace=wrap;rounded=0;shadow=0;glass=0;labelBackgroundColor=#FFFFFF;labelBorderColor=none;sketch=0;" vertex="1" parent="1">
          <mxGeometry x="305" y="137.5" width="150" height="15" as="geometry" />
        </mxCell>
        <mxCell id="qdiF5EuSsOP5StvctFkJ-43" value="" style="ellipse;whiteSpace=wrap;html=1;rounded=1;shadow=0;glass=0;labelBackgroundColor=none;labelBorderColor=none;sketch=0;" vertex="1" parent="1">
          <mxGeometry x="40" y="10" width="20" height="20" as="geometry" />
        </mxCell>
        <mxCell id="qdiF5EuSsOP5StvctFkJ-44" value="" style="ellipse;whiteSpace=wrap;html=1;rounded=1;shadow=0;glass=0;labelBackgroundColor=none;labelBorderColor=none;sketch=0;fillColor=#eeeeee;strokeColor=#36393d;" vertex="1" parent="1">
          <mxGeometry x="40" y="40" width="20" height="20" as="geometry" />
        </mxCell>
        <mxCell id="qdiF5EuSsOP5StvctFkJ-45" value="" style="ellipse;whiteSpace=wrap;html=1;rounded=1;shadow=0;glass=0;labelBackgroundColor=none;labelBorderColor=none;sketch=0;fillColor=#d5e8d4;strokeColor=#82b366;" vertex="1" parent="1">
          <mxGeometry x="40" y="70" width="20" height="20" as="geometry" />
        </mxCell>
        <mxCell id="qdiF5EuSsOP5StvctFkJ-46" value="" style="ellipse;whiteSpace=wrap;html=1;rounded=1;shadow=0;glass=0;labelBackgroundColor=none;labelBorderColor=none;sketch=0;fillColor=#dae8fc;strokeColor=#00A800;strokeWidth=2;" vertex="1" parent="1">
          <mxGeometry x="40" y="100" width="20" height="20" as="geometry" />
        </mxCell>
        <mxCell id="qdiF5EuSsOP5StvctFkJ-47" value="" style="ellipse;whiteSpace=wrap;html=1;rounded=1;shadow=0;glass=0;labelBackgroundColor=none;labelBorderColor=none;sketch=0;fillColor=#CCE5FF;strokeColor=#000000;strokeWidth=2;" vertex="1" parent="1">
          <mxGeometry x="40" y="130" width="20" height="20" as="geometry" />
        </mxCell>
        <mxCell id="qdiF5EuSsOP5StvctFkJ-48" value="Global variables" style="text;html=1;strokeColor=none;fillColor=none;align=left;verticalAlign=middle;whiteSpace=wrap;rounded=0;shadow=0;glass=0;labelBackgroundColor=#FFFFFF;labelBorderColor=none;sketch=0;" vertex="1" parent="1">
          <mxGeometry x="66" y="12.5" width="150" height="15" as="geometry" />
        </mxCell>
        <mxCell id="qdiF5EuSsOP5StvctFkJ-49" value="Internal variables" style="text;html=1;strokeColor=none;fillColor=none;align=left;verticalAlign=middle;whiteSpace=wrap;rounded=0;shadow=0;glass=0;labelBackgroundColor=#FFFFFF;labelBorderColor=none;sketch=0;" vertex="1" parent="1">
          <mxGeometry x="66" y="45" width="150" height="15" as="geometry" />
        </mxCell>
        <mxCell id="qdiF5EuSsOP5StvctFkJ-50" value="Control from the algorithm" style="text;html=1;strokeColor=none;fillColor=none;align=left;verticalAlign=middle;whiteSpace=wrap;rounded=0;shadow=0;glass=0;labelBackgroundColor=#FFFFFF;labelBorderColor=none;sketch=0;" vertex="1" parent="1">
          <mxGeometry x="66" y="72.5" width="154" height="15" as="geometry" />
        </mxCell>
        <mxCell id="qdiF5EuSsOP5StvctFkJ-51" value="Control from the HMI" style="text;html=1;strokeColor=none;fillColor=none;align=left;verticalAlign=middle;whiteSpace=wrap;rounded=0;shadow=0;glass=0;labelBackgroundColor=#FFFFFF;labelBorderColor=none;sketch=0;" vertex="1" parent="1">
          <mxGeometry x="66" y="105" width="150" height="15" as="geometry" />
        </mxCell>
        <mxCell id="qdiF5EuSsOP5StvctFkJ-52" value="Display on HMI" style="text;html=1;strokeColor=none;fillColor=none;align=left;verticalAlign=middle;whiteSpace=wrap;rounded=0;shadow=0;glass=0;labelBackgroundColor=#FFFFFF;labelBorderColor=none;sketch=0;" vertex="1" parent="1">
          <mxGeometry x="66" y="135" width="150" height="15" as="geometry" />
        </mxCell>
        <mxCell id="qdiF5EuSsOP5StvctFkJ-53" value="" style="ellipse;whiteSpace=wrap;html=1;rounded=1;shadow=0;glass=0;labelBackgroundColor=none;labelBorderColor=none;sketch=0;fillColor=#CCE5FF;strokeColor=#FF0000;strokeWidth=1;" vertex="1" parent="1">
          <mxGeometry x="40" y="160" width="20" height="20" as="geometry" />
        </mxCell>
        <mxCell id="qdiF5EuSsOP5StvctFkJ-54" value="HMI alarms" style="text;html=1;strokeColor=none;fillColor=none;align=left;verticalAlign=middle;whiteSpace=wrap;rounded=0;shadow=0;glass=0;labelBackgroundColor=#FFFFFF;labelBorderColor=none;sketch=0;" vertex="1" parent="1">
          <mxGeometry x="66" y="165" width="150" height="15" as="geometry" />
        </mxCell>
        <mxCell id="qdiF5EuSsOP5StvctFkJ-55" value="" style="ellipse;whiteSpace=wrap;html=1;rounded=1;shadow=0;glass=0;labelBackgroundColor=none;labelBorderColor=none;sketch=0;fillColor=#e1d5e7;strokeColor=#9673a6;" vertex="1" parent="1">
          <mxGeometry x="40" y="190" width="20" height="20" as="geometry" />
        </mxCell>
        <mxCell id="qdiF5EuSsOP5StvctFkJ-56" value="External signals" style="text;html=1;strokeColor=none;fillColor=none;align=left;verticalAlign=middle;whiteSpace=wrap;rounded=0;shadow=0;glass=0;labelBackgroundColor=#FFFFFF;labelBorderColor=none;sketch=0;" vertex="1" parent="1">
          <mxGeometry x="66" y="195" width="150" height="15" as="geometry" />
        </mxCell>
        <mxCell id="qdiF5EuSsOP5StvctFkJ-57" value="&lt;h1&gt;FB: drv_DO&lt;/h1&gt;" style="text;html=1;strokeColor=none;fillColor=none;spacing=5;spacingTop=-20;whiteSpace=wrap;overflow=hidden;rounded=0;shadow=0;glass=0;sketch=0;" vertex="1" parent="1">
          <mxGeometry x="680" y="10" width="150" height="40" as="geometry" />
        </mxCell>
      </root>
    </mxGraphModel>
  </diagram>
</mxfile>
